<svg xmlns="http://www.w3.org/2000/svg" viewBox="0 0 30 30">
  <defs>
    <style>
      .cls-1 {
        fill: rgba(41,128,185,0.5);
      }

      .cls-2 {
        fill: #2980b9;
      }
    </style>
  </defs>
  <g id="Group_130" data-name="Group 130" transform="translate(-369 -295)">
    <circle id="Ellipse_69" data-name="Ellipse 69" class="cls-1" cx="15" cy="15" r="15" transform="translate(369 295)"/>
    <g id="Group_119" data-name="Group 119" transform="translate(376.865 301.059)">
      <path id="Path_299" data-name="Path 299" class="cls-2" d="M7.09,0A7.094,7.094,0,0,0,.125,8.42c0,.028.019.1.046.236a7.229,7.229,0,0,0,.477,1.4,19.863,19.863,0,0,0,6.126,7.516.5.5,0,0,0,.63,0,19.863,19.863,0,0,0,6.126-7.516A6.82,6.82,0,0,0,14,8.656c.028-.134.046-.213.046-.236A7.094,7.094,0,0,0,7.09,0Zm5.973,8.244c0,.009,0,.014,0,.023s-.014.074-.032.158v.009a5.914,5.914,0,0,1-.412,1.209s0,.009-.009.014a18.619,18.619,0,0,1-5.519,6.882A18.483,18.483,0,0,1,1.566,9.657s0-.009-.009-.014a6.417,6.417,0,0,1-.412-1.209V8.425a1.534,1.534,0,0,1-.032-.158c0-.009,0-.014,0-.028A6.089,6.089,0,1,1,13.175,7.081a6,6,0,0,1-.111,1.163Zm0,0" transform="translate(0 0)"/>
      <path id="Path_300" data-name="Path 300" class="cls-2" d="M60.4,57.5A4.5,4.5,0,1,0,64.9,62a4.507,4.507,0,0,0-4.5-4.5Zm0,8A3.5,3.5,0,1,1,63.9,62a3.5,3.5,0,0,1-3.5,3.5Zm0,0" transform="translate(-53.31 -54.835)"/>
    </g>
  </g>
</svg>
