<svg xmlns="http://www.w3.org/2000/svg" xmlns:xlink="http://www.w3.org/1999/xlink" viewBox="0 0 30 30">
  <defs>
    <style>
      .cls-1 {
        fill: #2980b9;
      }

      .cls-2 {
        fill: rgba(41,128,185,0.5);
      }

      .cls-3 {
        clip-path: url(#clip-path);
      }
    </style>
    <clipPath id="clip-path">
      <rect id="Rectangle_58" data-name="Rectangle 58" class="cls-1" width="15.978" height="15.978"/>
    </clipPath>
  </defs>
  <g id="Group_128" data-name="Group 128" transform="translate(-369 -370.5)">
    <circle id="Ellipse_70" data-name="Ellipse 70" class="cls-2" cx="15" cy="15" r="15" transform="translate(369 370.5)"/>
    <g id="Group_118" data-name="Group 118" transform="translate(376.068 376.3)">
      <g id="Group_117" data-name="Group 117" transform="translate(0 0.2)">
        <g id="Group_116" data-name="Group 116" class="cls-3" transform="translate(0 0)">
          <path id="Path_298" data-name="Path 298" class="cls-1" d="M.217,11.393l3.37-3.37a.824.824,0,0,1,1.167,0L6.421,9.7l3.37-3.37L8.117,4.654a.8.8,0,0,1-.24-.583.844.844,0,0,1,.24-.583l3.37-3.37a.824.824,0,0,1,1.167,0L14.9,2.368c1.029,1.029,1.27,2.663.679,4.6a13.066,13.066,0,0,1-3.308,5.209C10.045,14.42,7.3,15.806,5.124,15.806a3.643,3.643,0,0,1-2.656-1L.217,12.56a.824.824,0,0,1,0-1.167Zm3.418,2.251a2.03,2.03,0,0,0,1.5.515c1.73,0,4.077-1.235,5.985-3.137a11.335,11.335,0,0,0,2.9-4.523c.4-1.311.3-2.388-.275-2.958L12.07,1.874l-2.2,2.2,1.675,1.675a.832.832,0,0,1,.24.583.844.844,0,0,1-.24.583L7,11.455a.824.824,0,0,1-1.167,0L4.163,9.78l-2.2,2.2,1.668,1.668Zm0,0" transform="translate(0.023 0.103)"/>
        </g>
      </g>
    </g>
  </g>
</svg>
