<?xml version="1.0" standalone="no"?>
<!DOCTYPE svg PUBLIC "-//W3C//DTD SVG 20010904//EN"
 "http://www.w3.org/TR/2001/REC-SVG-20010904/DTD/svg10.dtd">
<svg version="1.0" xmlns="http://www.w3.org/2000/svg"
 width="596.000000pt" height="596.000000pt" viewBox="0 0 596.000000 596.000000"
 preserveAspectRatio="xMidYMid meet">
<metadata>
Created by potrace 1.11, written by Peter Selinger 2001-2013
</metadata>
<g transform="translate(0.000000,596.000000) scale(0.100000,-0.100000)"
fill="#000000" stroke="none">
<path d="M1225 3528 c-666 -1154 -1211 -2103 -1213 -2109 -2 -5 572 -9 1537
-9 848 0 1541 4 1541 8 0 5 -87 159 -193 343 l-194 334 -748 3 c-705 2 -747 3
-743 20 3 9 368 646 812 1415 444 769 808 1402 809 1406 2 8 -370 659 -387
678 -8 8 -331 -544 -1221 -2089z"/>
<path d="M3487 5263 c-2 -4 -352 -611 -777 -1348 -425 -737 -781 -1355 -792
-1373 l-20 -32 403 2 402 3 391 677 c215 372 394 679 397 682 3 3 369 -626
814 -1397 445 -771 819 -1419 832 -1439 l23 -38 396 0 c360 0 396 1 390 16 -6
17 -2420 4205 -2442 4237 -6 10 -14 15 -17 10z"/>
<path d="M3462 2973 c-213 -360 -352 -611 -349 -628 2 -11 173 -314 380 -673
207 -360 377 -655 377 -658 0 -2 -725 -5 -1612 -6 l-1612 -3 -198 -344 c-109
-189 -197 -345 -195 -347 2 -2 1089 -3 2415 -2 l2412 3 -781 1355 c-430 745
-785 1359 -789 1363 -4 5 -26 -22 -48 -60z"/>
</g>
</svg>
