<svg id="Layer_1" data-name="Layer 1" xmlns="http://www.w3.org/2000/svg" fill="#ffffff" viewBox="0 0 409.6 332.8"><title>twitter</title><path d="M348.6,153.4a175.06,175.06,0,0,1-48.39,13.26,83.53,83.53,0,0,0,37-46.41,167.86,167.86,0,0,1-53.25,20.33A84,84,0,0,0,138.66,198a86.55,86.55,0,0,0,1.94,19.14C70.79,213.74,9,180.28-32.48,129.31A84.5,84.5,0,0,0-44,171.75a84.09,84.09,0,0,0,37.3,69.79A82.88,82.88,0,0,1-44.62,231.2v.92a84.36,84.36,0,0,0,67.28,82.51,83.82,83.82,0,0,1-22,2.77A74,74,0,0,1-15.25,316c10.88,33.25,41.75,57.7,78.46,58.5A168.7,168.7,0,0,1-40.9,410.27,158.24,158.24,0,0,1-61,409.12,236.36,236.36,0,0,0,67.82,446.8c154.52,0,239-128,239-238.95,0-3.71-.13-7.3-.31-10.85a167.53,167.53,0,0,0,42.09-43.6Zm0,0" transform="translate(61 -114)"/></svg>